<mxfile host="Electron" agent="Mozilla/5.0 (Macintosh; Intel Mac OS X 10_15_7) AppleWebKit/537.36 (KHTML, like Gecko) draw.io/27.0.2 Chrome/134.0.6998.205 Electron/35.3.0 Safari/537.36" version="27.0.2">
  <diagram name="Page-1" id="3rpwy8jJDTt2PcClZthO">
    <mxGraphModel dx="1426" dy="859" grid="1" gridSize="10" guides="1" tooltips="1" connect="1" arrows="1" fold="1" page="1" pageScale="1" pageWidth="827" pageHeight="1169" math="0" shadow="0">
      <root>
        <mxCell id="0" />
        <mxCell id="1" parent="0" />
        <mxCell id="seOlSEpPdrwtBAr5eCR6-19" value="" style="rounded=0;whiteSpace=wrap;html=1;fontFamily=Comic Sans MS;" parent="1" vertex="1">
          <mxGeometry x="470" y="630" width="300" height="280" as="geometry" />
        </mxCell>
        <mxCell id="seOlSEpPdrwtBAr5eCR6-18" value="" style="rounded=0;whiteSpace=wrap;html=1;fontFamily=Comic Sans MS;" parent="1" vertex="1">
          <mxGeometry x="80" y="630" width="300" height="280" as="geometry" />
        </mxCell>
        <mxCell id="seOlSEpPdrwtBAr5eCR6-10" style="edgeStyle=orthogonalEdgeStyle;curved=1;rounded=0;orthogonalLoop=1;jettySize=auto;html=1;entryX=0.5;entryY=0;entryDx=0;entryDy=0;fontFamily=Comic Sans MS;" parent="1" source="seOlSEpPdrwtBAr5eCR6-1" target="seOlSEpPdrwtBAr5eCR6-2" edge="1">
          <mxGeometry relative="1" as="geometry" />
        </mxCell>
        <mxCell id="seOlSEpPdrwtBAr5eCR6-1" value="User Query" style="rounded=1;whiteSpace=wrap;html=1;fillColor=#e1d5e7;strokeColor=#9673a6;fontFamily=Comic Sans MS;" parent="1" vertex="1">
          <mxGeometry x="200" y="130" width="210" height="40" as="geometry" />
        </mxCell>
        <mxCell id="seOlSEpPdrwtBAr5eCR6-11" style="edgeStyle=orthogonalEdgeStyle;curved=1;rounded=0;orthogonalLoop=1;jettySize=auto;html=1;entryX=0.5;entryY=0;entryDx=0;entryDy=0;fontFamily=Comic Sans MS;" parent="1" source="seOlSEpPdrwtBAr5eCR6-2" target="seOlSEpPdrwtBAr5eCR6-3" edge="1">
          <mxGeometry relative="1" as="geometry" />
        </mxCell>
        <mxCell id="seOlSEpPdrwtBAr5eCR6-2" value="Generate Hypothetical Document" style="rounded=1;whiteSpace=wrap;html=1;fillColor=#e1d5e7;strokeColor=#9673a6;fontFamily=Comic Sans MS;" parent="1" vertex="1">
          <mxGeometry x="200" y="210" width="210" height="40" as="geometry" />
        </mxCell>
        <mxCell id="seOlSEpPdrwtBAr5eCR6-7" style="edgeStyle=orthogonalEdgeStyle;curved=1;rounded=0;orthogonalLoop=1;jettySize=auto;html=1;entryX=0.5;entryY=0;entryDx=0;entryDy=0;fontFamily=Comic Sans MS;" parent="1" source="seOlSEpPdrwtBAr5eCR6-3" target="seOlSEpPdrwtBAr5eCR6-6" edge="1">
          <mxGeometry relative="1" as="geometry" />
        </mxCell>
        <mxCell id="seOlSEpPdrwtBAr5eCR6-3" value="Generate Hypothetical Document Embeddings" style="rounded=1;whiteSpace=wrap;html=1;fillColor=#e1d5e7;strokeColor=#9673a6;fontFamily=Comic Sans MS;" parent="1" vertex="1">
          <mxGeometry x="200" y="290" width="210" height="40" as="geometry" />
        </mxCell>
        <mxCell id="seOlSEpPdrwtBAr5eCR6-8" style="edgeStyle=orthogonalEdgeStyle;curved=1;rounded=0;orthogonalLoop=1;jettySize=auto;html=1;entryX=0.5;entryY=0;entryDx=0;entryDy=0;fontFamily=Comic Sans MS;" parent="1" source="seOlSEpPdrwtBAr5eCR6-4" target="seOlSEpPdrwtBAr5eCR6-6" edge="1">
          <mxGeometry relative="1" as="geometry" />
        </mxCell>
        <mxCell id="seOlSEpPdrwtBAr5eCR6-4" value="Document Store" style="rounded=1;whiteSpace=wrap;html=1;fillColor=#e1d5e7;strokeColor=#9673a6;fontFamily=Comic Sans MS;" parent="1" vertex="1">
          <mxGeometry x="470" y="290" width="210" height="40" as="geometry" />
        </mxCell>
        <mxCell id="seOlSEpPdrwtBAr5eCR6-9" style="edgeStyle=orthogonalEdgeStyle;curved=1;rounded=0;orthogonalLoop=1;jettySize=auto;html=1;entryX=0.5;entryY=0;entryDx=0;entryDy=0;fontFamily=Comic Sans MS;" parent="1" source="seOlSEpPdrwtBAr5eCR6-5" target="seOlSEpPdrwtBAr5eCR6-4" edge="1">
          <mxGeometry relative="1" as="geometry" />
        </mxCell>
        <mxCell id="seOlSEpPdrwtBAr5eCR6-5" value="Actual Document" style="rounded=1;whiteSpace=wrap;html=1;fillColor=#e1d5e7;strokeColor=#9673a6;fontFamily=Comic Sans MS;" parent="1" vertex="1">
          <mxGeometry x="470" y="210" width="210" height="40" as="geometry" />
        </mxCell>
        <mxCell id="seOlSEpPdrwtBAr5eCR6-14" style="edgeStyle=orthogonalEdgeStyle;curved=1;rounded=0;orthogonalLoop=1;jettySize=auto;html=1;entryX=0.5;entryY=0;entryDx=0;entryDy=0;fontFamily=Comic Sans MS;" parent="1" source="seOlSEpPdrwtBAr5eCR6-6" target="seOlSEpPdrwtBAr5eCR6-13" edge="1">
          <mxGeometry relative="1" as="geometry" />
        </mxCell>
        <mxCell id="seOlSEpPdrwtBAr5eCR6-6" value="Similarity Search in Doc Store" style="rounded=1;whiteSpace=wrap;html=1;fillColor=#e1d5e7;strokeColor=#9673a6;fontFamily=Comic Sans MS;" parent="1" vertex="1">
          <mxGeometry x="350" y="380" width="210" height="40" as="geometry" />
        </mxCell>
        <mxCell id="seOlSEpPdrwtBAr5eCR6-13" value="Return Relevant Documents" style="rounded=1;whiteSpace=wrap;html=1;fillColor=#e1d5e7;strokeColor=#9673a6;fontFamily=Comic Sans MS;" parent="1" vertex="1">
          <mxGeometry x="350" y="450" width="210" height="40" as="geometry" />
        </mxCell>
        <mxCell id="seOlSEpPdrwtBAr5eCR6-15" value="&lt;font style=&quot;font-size: 30px;&quot;&gt;HyDE = Hypothetical Document Embedding&lt;/font&gt;" style="text;html=1;align=center;verticalAlign=middle;whiteSpace=wrap;rounded=0;fontFamily=Comic Sans MS;" parent="1" vertex="1">
          <mxGeometry x="40" y="40" width="600" height="50" as="geometry" />
        </mxCell>
        <mxCell id="seOlSEpPdrwtBAr5eCR6-17" value="&lt;h1 id=&quot;Context-Enrichment-Window-for-Document-Retrieval&quot; style=&quot;line-height: 1; font-weight: 500; margin: 17.4182px 0px 23.2243px; font-size: 29.0304px; color: rgba(0, 0, 0, 0.87); text-align: start; background-color: rgb(255, 255, 255);&quot;&gt;Context Enrichment Window for Document Retrieval&lt;/h1&gt;" style="text;html=1;align=center;verticalAlign=middle;whiteSpace=wrap;rounded=0;fontFamily=Comic Sans MS;" parent="1" vertex="1">
          <mxGeometry x="40" y="570" width="670" height="30" as="geometry" />
        </mxCell>
        <mxCell id="seOlSEpPdrwtBAr5eCR6-20" value="Chunk 1" style="rounded=1;whiteSpace=wrap;html=1;fillColor=#dae8fc;strokeColor=#6c8ebf;fontFamily=Comic Sans MS;" parent="1" vertex="1">
          <mxGeometry x="140" y="660" width="180" height="50" as="geometry" />
        </mxCell>
        <mxCell id="seOlSEpPdrwtBAr5eCR6-21" value="Chunk 2" style="rounded=1;whiteSpace=wrap;html=1;fillColor=#dae8fc;strokeColor=#6c8ebf;fontFamily=Comic Sans MS;" parent="1" vertex="1">
          <mxGeometry x="140" y="720" width="180" height="50" as="geometry" />
        </mxCell>
        <mxCell id="seOlSEpPdrwtBAr5eCR6-22" value="Chunk 3" style="rounded=1;whiteSpace=wrap;html=1;fillColor=#dae8fc;strokeColor=#6c8ebf;fontFamily=Comic Sans MS;" parent="1" vertex="1">
          <mxGeometry x="140" y="780" width="180" height="50" as="geometry" />
        </mxCell>
        <mxCell id="seOlSEpPdrwtBAr5eCR6-23" value="Traditional Retrieval" style="text;html=1;align=center;verticalAlign=middle;whiteSpace=wrap;rounded=0;fontFamily=Comic Sans MS;" parent="1" vertex="1">
          <mxGeometry x="170" y="630" width="120" height="30" as="geometry" />
        </mxCell>
        <mxCell id="seOlSEpPdrwtBAr5eCR6-24" value="Limited Context" style="text;html=1;align=center;verticalAlign=middle;whiteSpace=wrap;rounded=0;fontFamily=Comic Sans MS;" parent="1" vertex="1">
          <mxGeometry x="170" y="870" width="120" height="30" as="geometry" />
        </mxCell>
        <mxCell id="seOlSEpPdrwtBAr5eCR6-25" value="Chunk 2" style="rounded=1;whiteSpace=wrap;html=1;fillColor=#dae8fc;strokeColor=#6c8ebf;fontFamily=Comic Sans MS;" parent="1" vertex="1">
          <mxGeometry x="525" y="720" width="180" height="50" as="geometry" />
        </mxCell>
        <mxCell id="seOlSEpPdrwtBAr5eCR6-26" value="Context Before" style="rounded=1;whiteSpace=wrap;html=1;fillColor=#d5e8d4;strokeColor=#82b366;fontFamily=Comic Sans MS;" parent="1" vertex="1">
          <mxGeometry x="525" y="670" width="180" height="50" as="geometry" />
        </mxCell>
        <mxCell id="seOlSEpPdrwtBAr5eCR6-27" value="Context After" style="rounded=1;whiteSpace=wrap;html=1;fillColor=#d5e8d4;strokeColor=#82b366;fontFamily=Comic Sans MS;" parent="1" vertex="1">
          <mxGeometry x="525" y="770" width="180" height="50" as="geometry" />
        </mxCell>
        <mxCell id="seOlSEpPdrwtBAr5eCR6-28" value="Context Enriched Retrieval" style="text;html=1;align=center;verticalAlign=middle;whiteSpace=wrap;rounded=0;fontFamily=Comic Sans MS;" parent="1" vertex="1">
          <mxGeometry x="540" y="630" width="150" height="30" as="geometry" />
        </mxCell>
        <mxCell id="seOlSEpPdrwtBAr5eCR6-29" value="Better Context and Coherence" style="text;html=1;align=center;verticalAlign=middle;whiteSpace=wrap;rounded=0;fontFamily=Comic Sans MS;" parent="1" vertex="1">
          <mxGeometry x="560" y="860" width="120" height="30" as="geometry" />
        </mxCell>
        <mxCell id="seOlSEpPdrwtBAr5eCR6-30" value="" style="endArrow=classic;html=1;rounded=0;curved=1;fontFamily=Comic Sans MS;" parent="1" edge="1">
          <mxGeometry width="50" height="50" relative="1" as="geometry">
            <mxPoint x="390" y="760" as="sourcePoint" />
            <mxPoint x="450" y="760" as="targetPoint" />
          </mxGeometry>
        </mxCell>
        <mxCell id="seOlSEpPdrwtBAr5eCR6-32" value="&lt;h1 id=&quot;Fusion-Retrieval-in-Document-Search&quot; style=&quot;line-height: 1; font-weight: 500; margin: 17.4182px 0px 23.2243px; font-size: 29.0304px; color: rgba(0, 0, 0, 0.87); text-align: start; background-color: rgb(255, 255, 255);&quot;&gt;Fusion Retrieval in Document Search&lt;/h1&gt;" style="text;html=1;align=center;verticalAlign=middle;whiteSpace=wrap;rounded=0;fontFamily=Comic Sans MS;" parent="1" vertex="1">
          <mxGeometry x="40" y="1000" width="500" height="50" as="geometry" />
        </mxCell>
        <mxCell id="seOlSEpPdrwtBAr5eCR6-36" style="edgeStyle=orthogonalEdgeStyle;curved=1;rounded=0;orthogonalLoop=1;jettySize=auto;html=1;entryX=0;entryY=0.5;entryDx=0;entryDy=0;fontFamily=Comic Sans MS;" parent="1" source="seOlSEpPdrwtBAr5eCR6-33" target="seOlSEpPdrwtBAr5eCR6-35" edge="1">
          <mxGeometry relative="1" as="geometry" />
        </mxCell>
        <mxCell id="seOlSEpPdrwtBAr5eCR6-39" style="edgeStyle=orthogonalEdgeStyle;curved=1;rounded=0;orthogonalLoop=1;jettySize=auto;html=1;entryX=1;entryY=0.5;entryDx=0;entryDy=0;fontFamily=Comic Sans MS;" parent="1" source="seOlSEpPdrwtBAr5eCR6-33" target="seOlSEpPdrwtBAr5eCR6-38" edge="1">
          <mxGeometry relative="1" as="geometry" />
        </mxCell>
        <mxCell id="seOlSEpPdrwtBAr5eCR6-33" value="BM25" style="rounded=1;whiteSpace=wrap;html=1;fillColor=#b1ddf0;strokeColor=#10739e;fontFamily=Comic Sans MS;" parent="1" vertex="1">
          <mxGeometry x="340" y="1080" width="120" height="60" as="geometry" />
        </mxCell>
        <mxCell id="seOlSEpPdrwtBAr5eCR6-37" style="edgeStyle=orthogonalEdgeStyle;curved=1;rounded=0;orthogonalLoop=1;jettySize=auto;html=1;entryX=0;entryY=0.5;entryDx=0;entryDy=0;fontFamily=Comic Sans MS;" parent="1" source="seOlSEpPdrwtBAr5eCR6-34" target="seOlSEpPdrwtBAr5eCR6-35" edge="1">
          <mxGeometry relative="1" as="geometry" />
        </mxCell>
        <mxCell id="seOlSEpPdrwtBAr5eCR6-40" style="edgeStyle=orthogonalEdgeStyle;curved=1;rounded=0;orthogonalLoop=1;jettySize=auto;html=1;entryX=1;entryY=0.5;entryDx=0;entryDy=0;fontFamily=Comic Sans MS;" parent="1" source="seOlSEpPdrwtBAr5eCR6-34" target="seOlSEpPdrwtBAr5eCR6-38" edge="1">
          <mxGeometry relative="1" as="geometry" />
        </mxCell>
        <mxCell id="seOlSEpPdrwtBAr5eCR6-34" value="Dense Vector Search" style="rounded=1;whiteSpace=wrap;html=1;fillColor=#b1ddf0;strokeColor=#10739e;fontFamily=Comic Sans MS;" parent="1" vertex="1">
          <mxGeometry x="340" y="1180" width="120" height="60" as="geometry" />
        </mxCell>
        <mxCell id="seOlSEpPdrwtBAr5eCR6-35" value="Vector Store" style="rounded=1;whiteSpace=wrap;html=1;fillColor=#d0cee2;strokeColor=#56517e;fontFamily=Comic Sans MS;" parent="1" vertex="1">
          <mxGeometry x="530" y="1130" width="120" height="60" as="geometry" />
        </mxCell>
        <mxCell id="seOlSEpPdrwtBAr5eCR6-38" value="Vector Fusion" style="rounded=1;whiteSpace=wrap;html=1;fillColor=#bac8d3;strokeColor=#23445d;fontFamily=Comic Sans MS;" parent="1" vertex="1">
          <mxGeometry x="150" y="1140" width="120" height="60" as="geometry" />
        </mxCell>
        <mxCell id="pPlLLGnjb0WLc0wwYM_j-1" value="&lt;h1 id=&quot;Fusion-Retrieval-in-Document-Search&quot; style=&quot;line-height: 1; font-weight: 500; margin: 17.4182px 0px 23.2243px; font-size: 29.0304px; color: rgba(0, 0, 0, 0.87); text-align: start; background-color: rgb(255, 255, 255);&quot;&gt;Ensemble LLM Methodology&lt;/h1&gt;" style="text;html=1;align=center;verticalAlign=middle;whiteSpace=wrap;rounded=0;fontFamily=Comic Sans MS;" parent="1" vertex="1">
          <mxGeometry x="40" y="1320" width="400" height="50" as="geometry" />
        </mxCell>
        <mxCell id="pPlLLGnjb0WLc0wwYM_j-6" style="edgeStyle=orthogonalEdgeStyle;rounded=0;orthogonalLoop=1;jettySize=auto;html=1;entryX=0;entryY=0.5;entryDx=0;entryDy=0;fontFamily=Comic Sans MS;" parent="1" source="pPlLLGnjb0WLc0wwYM_j-2" target="pPlLLGnjb0WLc0wwYM_j-3" edge="1">
          <mxGeometry relative="1" as="geometry" />
        </mxCell>
        <mxCell id="pPlLLGnjb0WLc0wwYM_j-2" value="" style="sketch=0;aspect=fixed;pointerEvents=1;shadow=0;dashed=0;html=1;strokeColor=none;labelPosition=center;verticalLabelPosition=bottom;verticalAlign=top;align=center;fillColor=#00188D;shape=mxgraph.mscae.enterprise.document;fontFamily=Comic Sans MS;" parent="1" vertex="1">
          <mxGeometry x="100" y="1470" width="40" height="50" as="geometry" />
        </mxCell>
        <mxCell id="pPlLLGnjb0WLc0wwYM_j-7" style="edgeStyle=orthogonalEdgeStyle;rounded=0;orthogonalLoop=1;jettySize=auto;html=1;entryX=0;entryY=0.5;entryDx=0;entryDy=0;fontFamily=Comic Sans MS;" parent="1" source="pPlLLGnjb0WLc0wwYM_j-3" target="pPlLLGnjb0WLc0wwYM_j-5" edge="1">
          <mxGeometry relative="1" as="geometry" />
        </mxCell>
        <mxCell id="pPlLLGnjb0WLc0wwYM_j-3" value="Chunking" style="rounded=1;whiteSpace=wrap;html=1;fillColor=#f8cecc;strokeColor=#b85450;fontFamily=Comic Sans MS;" parent="1" vertex="1">
          <mxGeometry x="200" y="1465" width="120" height="60" as="geometry" />
        </mxCell>
        <mxCell id="pPlLLGnjb0WLc0wwYM_j-18" style="edgeStyle=orthogonalEdgeStyle;curved=1;rounded=0;orthogonalLoop=1;jettySize=auto;html=1;entryX=0;entryY=0.5;entryDx=0;entryDy=0;fontFamily=Comic Sans MS;" parent="1" source="pPlLLGnjb0WLc0wwYM_j-4" target="pPlLLGnjb0WLc0wwYM_j-14" edge="1">
          <mxGeometry relative="1" as="geometry" />
        </mxCell>
        <mxCell id="pPlLLGnjb0WLc0wwYM_j-19" style="edgeStyle=orthogonalEdgeStyle;curved=1;rounded=0;orthogonalLoop=1;jettySize=auto;html=1;entryX=0;entryY=0.5;entryDx=0;entryDy=0;fontFamily=Comic Sans MS;" parent="1" source="pPlLLGnjb0WLc0wwYM_j-4" target="pPlLLGnjb0WLc0wwYM_j-15" edge="1">
          <mxGeometry relative="1" as="geometry" />
        </mxCell>
        <mxCell id="pPlLLGnjb0WLc0wwYM_j-20" style="edgeStyle=orthogonalEdgeStyle;curved=1;rounded=0;orthogonalLoop=1;jettySize=auto;html=1;entryX=0;entryY=0.5;entryDx=0;entryDy=0;fontFamily=Comic Sans MS;" parent="1" source="pPlLLGnjb0WLc0wwYM_j-4" target="pPlLLGnjb0WLc0wwYM_j-16" edge="1">
          <mxGeometry relative="1" as="geometry" />
        </mxCell>
        <mxCell id="pPlLLGnjb0WLc0wwYM_j-21" style="edgeStyle=orthogonalEdgeStyle;curved=1;rounded=0;orthogonalLoop=1;jettySize=auto;html=1;entryX=0.5;entryY=0;entryDx=0;entryDy=0;fontFamily=Comic Sans MS;" parent="1" source="pPlLLGnjb0WLc0wwYM_j-4" target="pPlLLGnjb0WLc0wwYM_j-17" edge="1">
          <mxGeometry relative="1" as="geometry">
            <Array as="points">
              <mxPoint x="585" y="1310" />
              <mxPoint x="1000" y="1310" />
            </Array>
          </mxGeometry>
        </mxCell>
        <mxCell id="pPlLLGnjb0WLc0wwYM_j-27" value="actual context" style="edgeLabel;html=1;align=center;verticalAlign=middle;resizable=0;points=[];fontFamily=Comic Sans MS;" parent="pPlLLGnjb0WLc0wwYM_j-21" vertex="1" connectable="0">
          <mxGeometry x="-0.029" y="3" relative="1" as="geometry">
            <mxPoint as="offset" />
          </mxGeometry>
        </mxCell>
        <mxCell id="pPlLLGnjb0WLc0wwYM_j-4" value="Vector Database" style="rounded=1;whiteSpace=wrap;html=1;fillColor=#d5e8d4;strokeColor=#82b366;fontFamily=Comic Sans MS;" parent="1" vertex="1">
          <mxGeometry x="525" y="1465" width="120" height="60" as="geometry" />
        </mxCell>
        <mxCell id="pPlLLGnjb0WLc0wwYM_j-8" style="edgeStyle=orthogonalEdgeStyle;rounded=0;orthogonalLoop=1;jettySize=auto;html=1;entryX=0;entryY=0.5;entryDx=0;entryDy=0;fontFamily=Comic Sans MS;" parent="1" source="pPlLLGnjb0WLc0wwYM_j-5" target="pPlLLGnjb0WLc0wwYM_j-4" edge="1">
          <mxGeometry relative="1" as="geometry" />
        </mxCell>
        <mxCell id="pPlLLGnjb0WLc0wwYM_j-12" style="edgeStyle=orthogonalEdgeStyle;curved=1;rounded=0;orthogonalLoop=1;jettySize=auto;html=1;entryX=0.5;entryY=1;entryDx=0;entryDy=0;fontFamily=Comic Sans MS;" parent="1" source="pPlLLGnjb0WLc0wwYM_j-5" target="pPlLLGnjb0WLc0wwYM_j-4" edge="1">
          <mxGeometry relative="1" as="geometry">
            <Array as="points">
              <mxPoint x="420" y="1570" />
              <mxPoint x="585" y="1570" />
            </Array>
          </mxGeometry>
        </mxCell>
        <mxCell id="pPlLLGnjb0WLc0wwYM_j-5" value="Embedding" style="rounded=1;whiteSpace=wrap;html=1;fillColor=#fff2cc;strokeColor=#d6b656;fontFamily=Comic Sans MS;" parent="1" vertex="1">
          <mxGeometry x="360" y="1465" width="120" height="60" as="geometry" />
        </mxCell>
        <mxCell id="pPlLLGnjb0WLc0wwYM_j-11" style="edgeStyle=orthogonalEdgeStyle;curved=1;rounded=0;orthogonalLoop=1;jettySize=auto;html=1;entryX=0.5;entryY=1;entryDx=0;entryDy=0;fontFamily=Comic Sans MS;" parent="1" source="pPlLLGnjb0WLc0wwYM_j-9" target="pPlLLGnjb0WLc0wwYM_j-5" edge="1">
          <mxGeometry relative="1" as="geometry" />
        </mxCell>
        <mxCell id="pPlLLGnjb0WLc0wwYM_j-13" value="user query" style="edgeLabel;html=1;align=center;verticalAlign=middle;resizable=0;points=[];fontFamily=Comic Sans MS;" parent="pPlLLGnjb0WLc0wwYM_j-11" vertex="1" connectable="0">
          <mxGeometry x="-0.244" y="4" relative="1" as="geometry">
            <mxPoint as="offset" />
          </mxGeometry>
        </mxCell>
        <mxCell id="pPlLLGnjb0WLc0wwYM_j-25" style="edgeStyle=orthogonalEdgeStyle;curved=1;rounded=0;orthogonalLoop=1;jettySize=auto;html=1;entryX=0.5;entryY=1;entryDx=0;entryDy=0;fontFamily=Comic Sans MS;" parent="1" source="pPlLLGnjb0WLc0wwYM_j-9" target="pPlLLGnjb0WLc0wwYM_j-17" edge="1">
          <mxGeometry relative="1" as="geometry">
            <Array as="points">
              <mxPoint x="120" y="1690" />
              <mxPoint x="1000" y="1690" />
            </Array>
          </mxGeometry>
        </mxCell>
        <mxCell id="pPlLLGnjb0WLc0wwYM_j-26" value="user query" style="edgeLabel;html=1;align=center;verticalAlign=middle;resizable=0;points=[];fontFamily=Comic Sans MS;" parent="pPlLLGnjb0WLc0wwYM_j-25" vertex="1" connectable="0">
          <mxGeometry x="0.0636" y="2" relative="1" as="geometry">
            <mxPoint as="offset" />
          </mxGeometry>
        </mxCell>
        <mxCell id="pPlLLGnjb0WLc0wwYM_j-9" value="User" style="sketch=0;outlineConnect=0;fontColor=#232F3E;gradientColor=none;fillColor=#232F3D;strokeColor=none;dashed=0;verticalLabelPosition=bottom;verticalAlign=top;align=center;html=1;fontSize=12;fontStyle=0;aspect=fixed;pointerEvents=1;shape=mxgraph.aws4.user;fontFamily=Comic Sans MS;" parent="1" vertex="1">
          <mxGeometry x="95" y="1570" width="50" height="50" as="geometry" />
        </mxCell>
        <mxCell id="pPlLLGnjb0WLc0wwYM_j-22" style="edgeStyle=orthogonalEdgeStyle;curved=1;rounded=0;orthogonalLoop=1;jettySize=auto;html=1;entryX=0;entryY=0.5;entryDx=0;entryDy=0;fontFamily=Comic Sans MS;" parent="1" source="pPlLLGnjb0WLc0wwYM_j-14" target="pPlLLGnjb0WLc0wwYM_j-17" edge="1">
          <mxGeometry relative="1" as="geometry" />
        </mxCell>
        <mxCell id="pPlLLGnjb0WLc0wwYM_j-14" value="LLM1" style="rounded=0;whiteSpace=wrap;html=1;fillColor=#e1d5e7;strokeColor=#9673a6;fontFamily=Comic Sans MS;" parent="1" vertex="1">
          <mxGeometry x="750" y="1370" width="120" height="60" as="geometry" />
        </mxCell>
        <mxCell id="pPlLLGnjb0WLc0wwYM_j-23" style="edgeStyle=orthogonalEdgeStyle;curved=1;rounded=0;orthogonalLoop=1;jettySize=auto;html=1;entryX=0;entryY=0.5;entryDx=0;entryDy=0;fontFamily=Comic Sans MS;" parent="1" source="pPlLLGnjb0WLc0wwYM_j-15" target="pPlLLGnjb0WLc0wwYM_j-17" edge="1">
          <mxGeometry relative="1" as="geometry" />
        </mxCell>
        <mxCell id="pPlLLGnjb0WLc0wwYM_j-15" value="LLM2" style="rounded=0;whiteSpace=wrap;html=1;fillColor=#e1d5e7;strokeColor=#9673a6;fontFamily=Comic Sans MS;" parent="1" vertex="1">
          <mxGeometry x="750" y="1465" width="120" height="60" as="geometry" />
        </mxCell>
        <mxCell id="pPlLLGnjb0WLc0wwYM_j-24" style="edgeStyle=orthogonalEdgeStyle;curved=1;rounded=0;orthogonalLoop=1;jettySize=auto;html=1;entryX=0;entryY=0.5;entryDx=0;entryDy=0;fontFamily=Comic Sans MS;" parent="1" source="pPlLLGnjb0WLc0wwYM_j-16" target="pPlLLGnjb0WLc0wwYM_j-17" edge="1">
          <mxGeometry relative="1" as="geometry" />
        </mxCell>
        <mxCell id="pPlLLGnjb0WLc0wwYM_j-16" value="LLM3" style="rounded=0;whiteSpace=wrap;html=1;fillColor=#e1d5e7;strokeColor=#9673a6;fontFamily=Comic Sans MS;" parent="1" vertex="1">
          <mxGeometry x="750" y="1560" width="120" height="60" as="geometry" />
        </mxCell>
        <mxCell id="pPlLLGnjb0WLc0wwYM_j-17" value="LLM4" style="rounded=1;whiteSpace=wrap;html=1;fillColor=#dae8fc;strokeColor=#6c8ebf;fontFamily=Comic Sans MS;" parent="1" vertex="1">
          <mxGeometry x="940" y="1465" width="120" height="60" as="geometry" />
        </mxCell>
        <mxCell id="pPlLLGnjb0WLc0wwYM_j-28" style="edgeStyle=orthogonalEdgeStyle;curved=1;rounded=0;orthogonalLoop=1;jettySize=auto;html=1;entryX=0.5;entryY=0.98;entryDx=0;entryDy=0;entryPerimeter=0;fontFamily=Comic Sans MS;" parent="1" source="pPlLLGnjb0WLc0wwYM_j-17" target="pPlLLGnjb0WLc0wwYM_j-9" edge="1">
          <mxGeometry relative="1" as="geometry">
            <Array as="points">
              <mxPoint x="1130" y="1495" />
              <mxPoint x="1130" y="1760" />
              <mxPoint x="120" y="1760" />
            </Array>
          </mxGeometry>
        </mxCell>
        <mxCell id="pPlLLGnjb0WLc0wwYM_j-29" value="Final Response" style="edgeLabel;html=1;align=center;verticalAlign=middle;resizable=0;points=[];fontFamily=Comic Sans MS;" parent="pPlLLGnjb0WLc0wwYM_j-28" vertex="1" connectable="0">
          <mxGeometry x="0.0633" y="-1" relative="1" as="geometry">
            <mxPoint as="offset" />
          </mxGeometry>
        </mxCell>
        <mxCell id="O-cw4qZPlI3x9Q71q9C8-1" value="Query Rewriting Agent&lt;div&gt;(Rewrite Query)&lt;/div&gt;" style="rounded=1;whiteSpace=wrap;html=1;fillColor=#fad7ac;strokeColor=#b46504;fontFamily=Comic Sans MS;" vertex="1" parent="1">
          <mxGeometry x="610" y="1925" width="120" height="60" as="geometry" />
        </mxCell>
        <mxCell id="O-cw4qZPlI3x9Q71q9C8-11" style="edgeStyle=orthogonalEdgeStyle;rounded=0;orthogonalLoop=1;jettySize=auto;html=1;entryX=0;entryY=0.5;entryDx=0;entryDy=0;fontFamily=Comic Sans MS;" edge="1" parent="1" source="O-cw4qZPlI3x9Q71q9C8-2" target="O-cw4qZPlI3x9Q71q9C8-5">
          <mxGeometry relative="1" as="geometry" />
        </mxCell>
        <mxCell id="O-cw4qZPlI3x9Q71q9C8-27" value="5, Yes" style="edgeLabel;html=1;align=center;verticalAlign=middle;resizable=0;points=[];fontFamily=Comic Sans MS;" vertex="1" connectable="0" parent="O-cw4qZPlI3x9Q71q9C8-11">
          <mxGeometry x="0.0102" relative="1" as="geometry">
            <mxPoint x="1" y="1" as="offset" />
          </mxGeometry>
        </mxCell>
        <mxCell id="O-cw4qZPlI3x9Q71q9C8-21" style="edgeStyle=orthogonalEdgeStyle;rounded=0;orthogonalLoop=1;jettySize=auto;html=1;entryX=0.5;entryY=0;entryDx=0;entryDy=0;fontFamily=Comic Sans MS;" edge="1" parent="1" source="O-cw4qZPlI3x9Q71q9C8-2" target="O-cw4qZPlI3x9Q71q9C8-3">
          <mxGeometry relative="1" as="geometry" />
        </mxCell>
        <mxCell id="O-cw4qZPlI3x9Q71q9C8-26" value="4, No" style="edgeLabel;html=1;align=center;verticalAlign=middle;resizable=0;points=[];fontFamily=Comic Sans MS;" vertex="1" connectable="0" parent="O-cw4qZPlI3x9Q71q9C8-21">
          <mxGeometry x="-0.1556" relative="1" as="geometry">
            <mxPoint as="offset" />
          </mxGeometry>
        </mxCell>
        <mxCell id="O-cw4qZPlI3x9Q71q9C8-2" value="Decision making Agent&lt;div&gt;(Do i Need More details?)&lt;/div&gt;" style="rounded=1;whiteSpace=wrap;html=1;fillColor=#fff2cc;strokeColor=#d6b656;fontFamily=Comic Sans MS;" vertex="1" parent="1">
          <mxGeometry x="613" y="2130" width="120" height="60" as="geometry" />
        </mxCell>
        <mxCell id="O-cw4qZPlI3x9Q71q9C8-22" style="edgeStyle=orthogonalEdgeStyle;rounded=0;orthogonalLoop=1;jettySize=auto;html=1;entryX=0.5;entryY=0;entryDx=0;entryDy=0;fontFamily=Comic Sans MS;" edge="1" parent="1" source="O-cw4qZPlI3x9Q71q9C8-3" target="O-cw4qZPlI3x9Q71q9C8-16">
          <mxGeometry relative="1" as="geometry" />
        </mxCell>
        <mxCell id="O-cw4qZPlI3x9Q71q9C8-32" value="9" style="edgeLabel;html=1;align=center;verticalAlign=middle;resizable=0;points=[];fontFamily=Comic Sans MS;" vertex="1" connectable="0" parent="O-cw4qZPlI3x9Q71q9C8-22">
          <mxGeometry x="-0.4222" y="-2" relative="1" as="geometry">
            <mxPoint as="offset" />
          </mxGeometry>
        </mxCell>
        <mxCell id="O-cw4qZPlI3x9Q71q9C8-3" value="LLM" style="rounded=1;whiteSpace=wrap;html=1;fillColor=#bac8d3;strokeColor=#23445d;fontFamily=Comic Sans MS;" vertex="1" parent="1">
          <mxGeometry x="613" y="2235" width="120" height="60" as="geometry" />
        </mxCell>
        <mxCell id="O-cw4qZPlI3x9Q71q9C8-19" style="edgeStyle=orthogonalEdgeStyle;rounded=0;orthogonalLoop=1;jettySize=auto;html=1;entryX=0.5;entryY=0;entryDx=0;entryDy=0;fontFamily=Comic Sans MS;" edge="1" parent="1" source="O-cw4qZPlI3x9Q71q9C8-4" target="O-cw4qZPlI3x9Q71q9C8-18">
          <mxGeometry relative="1" as="geometry" />
        </mxCell>
        <mxCell id="O-cw4qZPlI3x9Q71q9C8-34" value="11, Yes" style="edgeLabel;html=1;align=center;verticalAlign=middle;resizable=0;points=[];fontFamily=Comic Sans MS;" vertex="1" connectable="0" parent="O-cw4qZPlI3x9Q71q9C8-19">
          <mxGeometry x="-0.2727" y="3" relative="1" as="geometry">
            <mxPoint as="offset" />
          </mxGeometry>
        </mxCell>
        <mxCell id="O-cw4qZPlI3x9Q71q9C8-20" style="edgeStyle=orthogonalEdgeStyle;rounded=0;orthogonalLoop=1;jettySize=auto;html=1;entryX=0;entryY=0.75;entryDx=0;entryDy=0;fontFamily=Comic Sans MS;" edge="1" parent="1" source="O-cw4qZPlI3x9Q71q9C8-4" target="O-cw4qZPlI3x9Q71q9C8-1">
          <mxGeometry relative="1" as="geometry">
            <Array as="points">
              <mxPoint x="460" y="1970" />
            </Array>
          </mxGeometry>
        </mxCell>
        <mxCell id="O-cw4qZPlI3x9Q71q9C8-35" value="12, No" style="edgeLabel;html=1;align=center;verticalAlign=middle;resizable=0;points=[];fontFamily=Comic Sans MS;" vertex="1" connectable="0" parent="O-cw4qZPlI3x9Q71q9C8-20">
          <mxGeometry x="-0.56" y="-2" relative="1" as="geometry">
            <mxPoint as="offset" />
          </mxGeometry>
        </mxCell>
        <mxCell id="O-cw4qZPlI3x9Q71q9C8-4" value="Validating Agent&lt;div&gt;(Is the answer relevant)&lt;/div&gt;" style="rounded=1;whiteSpace=wrap;html=1;fillColor=#dae8fc;strokeColor=#6c8ebf;fontFamily=Comic Sans MS;" vertex="1" parent="1">
          <mxGeometry x="400" y="2120" width="120" height="60" as="geometry" />
        </mxCell>
        <mxCell id="O-cw4qZPlI3x9Q71q9C8-13" style="edgeStyle=orthogonalEdgeStyle;rounded=0;orthogonalLoop=1;jettySize=auto;html=1;entryX=0.5;entryY=0;entryDx=0;entryDy=0;fontFamily=Comic Sans MS;" edge="1" parent="1" source="O-cw4qZPlI3x9Q71q9C8-5" target="O-cw4qZPlI3x9Q71q9C8-12">
          <mxGeometry relative="1" as="geometry" />
        </mxCell>
        <mxCell id="O-cw4qZPlI3x9Q71q9C8-28" value="6" style="edgeLabel;html=1;align=center;verticalAlign=middle;resizable=0;points=[];fontFamily=Comic Sans MS;" vertex="1" connectable="0" parent="O-cw4qZPlI3x9Q71q9C8-13">
          <mxGeometry x="0.2" relative="1" as="geometry">
            <mxPoint as="offset" />
          </mxGeometry>
        </mxCell>
        <mxCell id="O-cw4qZPlI3x9Q71q9C8-5" value="retriever Agent" style="rounded=1;whiteSpace=wrap;html=1;fillColor=#d0cee2;strokeColor=#56517e;fontFamily=Comic Sans MS;" vertex="1" parent="1">
          <mxGeometry x="830" y="2030" width="120" height="60" as="geometry" />
        </mxCell>
        <mxCell id="O-cw4qZPlI3x9Q71q9C8-7" style="edgeStyle=orthogonalEdgeStyle;rounded=0;orthogonalLoop=1;jettySize=auto;html=1;entryX=0;entryY=0.5;entryDx=0;entryDy=0;fontFamily=Comic Sans MS;" edge="1" parent="1" source="O-cw4qZPlI3x9Q71q9C8-6" target="O-cw4qZPlI3x9Q71q9C8-1">
          <mxGeometry relative="1" as="geometry" />
        </mxCell>
        <mxCell id="O-cw4qZPlI3x9Q71q9C8-23" value="1" style="edgeLabel;html=1;align=center;verticalAlign=middle;resizable=0;points=[];fontFamily=Comic Sans MS;" vertex="1" connectable="0" parent="O-cw4qZPlI3x9Q71q9C8-7">
          <mxGeometry x="0.3455" y="2" relative="1" as="geometry">
            <mxPoint as="offset" />
          </mxGeometry>
        </mxCell>
        <mxCell id="O-cw4qZPlI3x9Q71q9C8-6" value="User Query" style="html=1;verticalLabelPosition=bottom;align=center;labelBackgroundColor=#ffffff;verticalAlign=top;strokeWidth=2;strokeColor=#0080F0;shadow=0;dashed=0;shape=mxgraph.ios7.icons.document;fontFamily=Comic Sans MS;" vertex="1" parent="1">
          <mxGeometry x="350" y="1930" width="40" height="50" as="geometry" />
        </mxCell>
        <mxCell id="O-cw4qZPlI3x9Q71q9C8-10" style="edgeStyle=orthogonalEdgeStyle;rounded=0;orthogonalLoop=1;jettySize=auto;html=1;entryX=0.5;entryY=0;entryDx=0;entryDy=0;fontFamily=Comic Sans MS;" edge="1" parent="1" source="O-cw4qZPlI3x9Q71q9C8-8" target="O-cw4qZPlI3x9Q71q9C8-2">
          <mxGeometry relative="1" as="geometry" />
        </mxCell>
        <mxCell id="O-cw4qZPlI3x9Q71q9C8-25" value="3" style="edgeLabel;html=1;align=center;verticalAlign=middle;resizable=0;points=[];fontFamily=Comic Sans MS;" vertex="1" connectable="0" parent="O-cw4qZPlI3x9Q71q9C8-10">
          <mxGeometry x="0.28" relative="1" as="geometry">
            <mxPoint as="offset" />
          </mxGeometry>
        </mxCell>
        <mxCell id="O-cw4qZPlI3x9Q71q9C8-8" value="updated Query" style="html=1;verticalLabelPosition=bottom;align=center;labelBackgroundColor=#ffffff;verticalAlign=top;strokeWidth=2;strokeColor=#ae4132;shadow=0;dashed=0;shape=mxgraph.ios7.icons.document;fillColor=#fad9d5;fontFamily=Comic Sans MS;" vertex="1" parent="1">
          <mxGeometry x="653" y="2030" width="40" height="50" as="geometry" />
        </mxCell>
        <mxCell id="O-cw4qZPlI3x9Q71q9C8-9" style="edgeStyle=orthogonalEdgeStyle;rounded=0;orthogonalLoop=1;jettySize=auto;html=1;entryX=0.425;entryY=0.08;entryDx=0;entryDy=0;entryPerimeter=0;fontFamily=Comic Sans MS;" edge="1" parent="1" source="O-cw4qZPlI3x9Q71q9C8-1" target="O-cw4qZPlI3x9Q71q9C8-8">
          <mxGeometry relative="1" as="geometry" />
        </mxCell>
        <mxCell id="O-cw4qZPlI3x9Q71q9C8-24" value="2" style="edgeLabel;html=1;align=center;verticalAlign=middle;resizable=0;points=[];fontFamily=Comic Sans MS;" vertex="1" connectable="0" parent="O-cw4qZPlI3x9Q71q9C8-9">
          <mxGeometry x="-0.1837" relative="1" as="geometry">
            <mxPoint as="offset" />
          </mxGeometry>
        </mxCell>
        <mxCell id="O-cw4qZPlI3x9Q71q9C8-29" style="edgeStyle=orthogonalEdgeStyle;rounded=0;orthogonalLoop=1;jettySize=auto;html=1;fontFamily=Comic Sans MS;" edge="1" parent="1" source="O-cw4qZPlI3x9Q71q9C8-12" target="O-cw4qZPlI3x9Q71q9C8-14">
          <mxGeometry relative="1" as="geometry" />
        </mxCell>
        <mxCell id="O-cw4qZPlI3x9Q71q9C8-30" value="7" style="edgeLabel;html=1;align=center;verticalAlign=middle;resizable=0;points=[];fontFamily=Comic Sans MS;" vertex="1" connectable="0" parent="O-cw4qZPlI3x9Q71q9C8-29">
          <mxGeometry x="-0.0571" y="2" relative="1" as="geometry">
            <mxPoint as="offset" />
          </mxGeometry>
        </mxCell>
        <mxCell id="O-cw4qZPlI3x9Q71q9C8-12" value="Qdrant&lt;div&gt;(Vector Store)&lt;/div&gt;" style="rounded=1;whiteSpace=wrap;html=1;fillColor=#b1ddf0;strokeColor=#10739e;fontFamily=Comic Sans MS;" vertex="1" parent="1">
          <mxGeometry x="830" y="2130" width="120" height="60" as="geometry" />
        </mxCell>
        <mxCell id="O-cw4qZPlI3x9Q71q9C8-15" style="edgeStyle=orthogonalEdgeStyle;rounded=0;orthogonalLoop=1;jettySize=auto;html=1;entryX=1;entryY=0.5;entryDx=0;entryDy=0;fontFamily=Comic Sans MS;" edge="1" parent="1" source="O-cw4qZPlI3x9Q71q9C8-14" target="O-cw4qZPlI3x9Q71q9C8-3">
          <mxGeometry relative="1" as="geometry" />
        </mxCell>
        <mxCell id="O-cw4qZPlI3x9Q71q9C8-31" value="8" style="edgeLabel;html=1;align=center;verticalAlign=middle;resizable=0;points=[];fontFamily=Comic Sans MS;" vertex="1" connectable="0" parent="O-cw4qZPlI3x9Q71q9C8-15">
          <mxGeometry x="-0.0544" y="1" relative="1" as="geometry">
            <mxPoint x="1" y="1" as="offset" />
          </mxGeometry>
        </mxCell>
        <mxCell id="O-cw4qZPlI3x9Q71q9C8-14" value="Retrieved&lt;div&gt;context&lt;/div&gt;&lt;div&gt;&lt;br&gt;&lt;/div&gt;&lt;div&gt;+&lt;/div&gt;&lt;div&gt;&lt;br&gt;&lt;/div&gt;&lt;div&gt;Updated&lt;/div&gt;&lt;div&gt;Query&lt;/div&gt;" style="rounded=1;whiteSpace=wrap;html=1;fillColor=#b0e3e6;strokeColor=#0e8088;fontFamily=Comic Sans MS;" vertex="1" parent="1">
          <mxGeometry x="830" y="2250" width="120" height="130" as="geometry" />
        </mxCell>
        <mxCell id="O-cw4qZPlI3x9Q71q9C8-17" style="edgeStyle=orthogonalEdgeStyle;rounded=0;orthogonalLoop=1;jettySize=auto;html=1;entryX=1;entryY=0.5;entryDx=0;entryDy=0;fontFamily=Comic Sans MS;" edge="1" parent="1" source="O-cw4qZPlI3x9Q71q9C8-16" target="O-cw4qZPlI3x9Q71q9C8-4">
          <mxGeometry relative="1" as="geometry" />
        </mxCell>
        <mxCell id="O-cw4qZPlI3x9Q71q9C8-33" value="10" style="edgeLabel;html=1;align=center;verticalAlign=middle;resizable=0;points=[];fontFamily=Comic Sans MS;" vertex="1" connectable="0" parent="O-cw4qZPlI3x9Q71q9C8-17">
          <mxGeometry x="0.2178" y="-2" relative="1" as="geometry">
            <mxPoint x="1" as="offset" />
          </mxGeometry>
        </mxCell>
        <mxCell id="O-cw4qZPlI3x9Q71q9C8-16" value="Response" style="rounded=1;whiteSpace=wrap;html=1;fillColor=#d5e8d4;strokeColor=#82b366;fontFamily=Comic Sans MS;" vertex="1" parent="1">
          <mxGeometry x="613" y="2330" width="120" height="60" as="geometry" />
        </mxCell>
        <mxCell id="O-cw4qZPlI3x9Q71q9C8-18" value="Final Response" style="rounded=1;whiteSpace=wrap;html=1;fillColor=#e1d5e7;strokeColor=#9673a6;fontFamily=Comic Sans MS;" vertex="1" parent="1">
          <mxGeometry x="400" y="2235" width="120" height="60" as="geometry" />
        </mxCell>
        <mxCell id="O-cw4qZPlI3x9Q71q9C8-36" style="edgeStyle=orthogonalEdgeStyle;rounded=0;orthogonalLoop=1;jettySize=auto;html=1;entryX=0.525;entryY=0.94;entryDx=0;entryDy=0;entryPerimeter=0;fontFamily=Comic Sans MS;" edge="1" parent="1" source="O-cw4qZPlI3x9Q71q9C8-18" target="O-cw4qZPlI3x9Q71q9C8-6">
          <mxGeometry relative="1" as="geometry" />
        </mxCell>
        <mxCell id="O-cw4qZPlI3x9Q71q9C8-37" value="&lt;h1 id=&quot;Fusion-Retrieval-in-Document-Search&quot; style=&quot;line-height: 1; font-weight: 500; margin: 17.4182px 0px 23.2243px; font-size: 29.0304px; color: rgba(0, 0, 0, 0.87); text-align: start; background-color: rgb(255, 255, 255);&quot;&gt;Agentic RAG&lt;/h1&gt;" style="text;html=1;align=center;verticalAlign=middle;whiteSpace=wrap;rounded=0;fontFamily=Comic Sans MS;" vertex="1" parent="1">
          <mxGeometry x="80" y="1810" width="187" height="50" as="geometry" />
        </mxCell>
        <mxCell id="O-cw4qZPlI3x9Q71q9C8-38" value="" style="verticalLabelPosition=bottom;aspect=fixed;html=1;shape=mxgraph.salesforce.bots;" vertex="1" parent="1">
          <mxGeometry x="390" y="2101.5" width="30" height="28.5" as="geometry" />
        </mxCell>
        <mxCell id="O-cw4qZPlI3x9Q71q9C8-39" value="" style="verticalLabelPosition=bottom;aspect=fixed;html=1;shape=mxgraph.salesforce.bots;" vertex="1" parent="1">
          <mxGeometry x="600" y="1901.5" width="30" height="28.5" as="geometry" />
        </mxCell>
        <mxCell id="O-cw4qZPlI3x9Q71q9C8-40" value="" style="verticalLabelPosition=bottom;aspect=fixed;html=1;shape=mxgraph.salesforce.bots;" vertex="1" parent="1">
          <mxGeometry x="600" y="2110" width="30" height="28.5" as="geometry" />
        </mxCell>
        <mxCell id="O-cw4qZPlI3x9Q71q9C8-41" value="" style="verticalLabelPosition=bottom;aspect=fixed;html=1;shape=mxgraph.salesforce.bots;" vertex="1" parent="1">
          <mxGeometry x="820" y="2010" width="30" height="28.5" as="geometry" />
        </mxCell>
      </root>
    </mxGraphModel>
  </diagram>
</mxfile>
